<svg viewBox="-2 -2 27 27" fill="none" xmlns="http://www.w3.org/2000/svg">
<path d="M6 14.7008C6 14.3008 6.3 14.0008 6.7 14.0008C7.9 14.0008 8.9 13.7008 10 13.3008C10.2 13.2008 10.3 13.2008 10.5 13.3008C10.6 13.3008 10.7 13.4008 10.8 13.6008L11.3 14.6008C12.7 13.8008 13.9 12.6008 14.8 11.1008L13.8 10.6008C13.6 10.5008 13.5 10.4008 13.5 10.2008C13.4 10.0008 13.5 9.80078 13.5 9.70078C14 8.70078 14.2 7.60078 14.2 6.50078C14.2 6.10078 14.5 5.80078 14.9 5.80078H17.3C17.7 5.80078 18 6.10078 18 6.50078C18 12.7008 12.9 17.8008 6.7 17.8008C6.3 17.8008 6 17.5008 6 17.1008V14.7008Z" fill="white"/>
<path d="M12 23.1758C5.92487 23.1758 1 18.2509 1 12.1758H-1C-1 19.3555 4.8203 25.1758 12 25.1758V23.1758ZM23 12.1758C23 18.2509 18.0751 23.1758 12 23.1758V25.1758C19.1797 25.1758 25 19.3555 25 12.1758H23ZM12 1.17578C18.0751 1.17578 23 6.10065 23 12.1758H25C25 4.99608 19.1797 -0.824219 12 -0.824219V1.17578ZM12 -0.824219C4.8203 -0.824219 -1 4.99608 -1 12.1758H1C1 6.10065 5.92487 1.17578 12 1.17578V-0.824219Z" fill="white"/>
</svg>
