<svg width="16" height="16" viewBox="0 0 16 16" fill="none" xmlns="http://www.w3.org/2000/svg">
<g clip-path="url(#clip0)">
<path d="M12 15.9996C11.2 15.8996 10.6 15.7996 9.9 15.4996C8.4 14.8996 7 14.0996 5.7 12.9996C4 11.5996 2.6 9.99955 1.4 8.09955C0.8 6.99955 0.3 5.89955 0.1 4.69955C0.1 4.49955 0 4.29955 0 4.09955C0 3.89955 0 3.69955 0.1 3.59955C0.6 2.79955 1.1 2.09955 1.8 1.39955C2.2 0.999552 2.6 0.599552 3 0.299552C3.5 -0.100448 4.1 -0.00044772 4.5 0.499552C5.2 1.49955 5.9 2.49955 6.4 3.59955C6.5 3.79955 6.5 3.99955 6.6 4.19955C6.7 4.49955 6.6 4.79955 6.4 4.99955C6.2 5.29955 6 5.39955 5.8 5.59955C5.7 5.79955 5.5 5.89955 5.4 5.99955C5.3 6.09955 5.3 6.19955 5.3 6.29955C6.1 8.39955 7.6 9.89955 9.7 10.6996C9.8 10.7996 9.9 10.6996 10 10.5996C10.2 10.2996 10.5 9.99955 10.8 9.69955C11.1 9.29955 11.5 9.19955 12 9.39955C12.6 9.69955 13.2 9.99955 13.8 10.2996C14.4 10.5996 14.9 10.9996 15.5 11.3996C15.8 11.5996 15.9 11.7996 16 12.0996C16.1 12.2996 16.1 12.4996 15.9 12.6996C15.8 12.8996 15.7 12.9996 15.6 13.1996C14.7 14.1996 13.6 15.0996 12.4 15.7996C12.2 15.8996 12.1 15.9996 12 15.9996ZM3.6 1.09955C3.6 1.09955 3.5 1.09955 3.6 1.09955C2.6 1.99955 1.9 2.79955 1.2 3.79955C1.1 3.99955 1.1 4.19955 1.1 4.39955C1.3 5.39955 1.6 6.29955 2.1 7.09955C3.7 9.89955 5.9 12.0996 8.6 13.6996C9.6 14.2996 10.6 14.6996 11.7 14.7996C11.8 14.7996 11.9 14.7996 11.9 14.6996C12.5 14.2996 13.1 13.7996 13.7 13.3996C14.1 13.0996 14.4 12.6996 14.8 12.2996C14.7 12.2996 14.7 12.1996 14.7 12.1996C13.8 11.4996 12.8 10.8996 11.7 10.3996C11.4 10.2996 11.5 10.2996 11.3 10.4996C11 10.8996 10.7 11.1996 10.3 11.5996C10.2 11.7996 10 11.7996 9.8 11.6996C9.7 11.6996 9.6 11.6996 9.5 11.5996C8 11.0996 6.7 10.1996 5.6 8.99955C5 8.29955 4.4 7.29955 4.2 6.09955C4.1 5.89955 4.2 5.69955 4.3 5.49955C4.4 5.39955 4.4 5.29955 4.5 5.29955C4.8 4.99955 5.1 4.69955 5.5 4.49955C5.6 4.39955 5.6 4.39955 5.5 4.29955C5 3.29955 4.5 2.39955 3.9 1.49955C3.8 1.39955 3.7 1.19955 3.6 1.09955Z" fill="black" fill-opacity="0.3"/>
<path d="M15.5001 7.50035C15.1001 7.50035 14.8001 7.50035 14.4001 7.50035C14.4001 5.90035 13.8001 4.50035 12.7001 3.40035C11.6001 2.30035 10.2001 1.70035 8.6001 1.70035C8.6001 1.30035 8.6001 1.00035 8.6001 0.700354C12.0001 0.400353 15.5001 3.40035 15.5001 7.50035Z" fill="black" fill-opacity="0.3"/>
<path d="M8.5 4.29911C8.5 3.89911 8.5 3.59911 8.5 3.29911C10.5 3.19911 12.8 4.89911 12.8 7.49911C12.6 7.49911 12.5 7.49911 12.3 7.49911C12.1 7.49911 12 7.49911 11.8 7.49911C11.8 6.59911 11.5 5.89911 10.9 5.19911C10.2 4.59911 9.4 4.29911 8.5 4.29911Z" fill="black" fill-opacity="0.3"/>
</g>
<defs>
<clipPath id="clip0">
<rect width="16" height="16" fill="white"/>
</clipPath>
</defs>
</svg>
