<svg width="23" height="24" viewBox="0 0 23 24" fill="none" xmlns="http://www.w3.org/2000/svg">
<g clip-path="url(#clip0)">
<path d="M6.69984 24.0004C6.29984 23.9004 5.79984 23.8004 5.39984 23.7004C2.49984 22.9004 0.599839 20.0004 0.999839 17.0004C1.39984 14.2004 3.39984 12.1004 6.29984 11.6004C6.49984 11.6004 6.69984 11.6004 6.89984 11.5004C6.89984 11.4004 6.89984 11.3004 6.89984 11.2004C6.89984 8.20039 6.89984 5.20039 6.89984 2.20039C6.89984 0.900391 7.49984 0.200391 8.69984 -0.0996094C12.8998 -0.0996094 17.0998 -0.0996094 21.2998 -0.0996094C22.4998 0.200391 23.0998 0.900391 23.0998 2.20039C23.0998 7.40039 23.0998 12.6004 23.0998 17.8004C23.0998 18.0004 23.0998 18.2004 23.0998 18.4004C22.8998 19.4004 22.0998 20.1004 20.9998 20.1004C18.3998 20.1004 15.8998 20.1004 13.2998 20.1004C13.0998 20.1004 12.9998 20.2004 12.8998 20.3004C11.9998 22.1004 10.5998 23.2004 8.69984 23.7004C8.29984 23.9004 7.99984 23.9004 7.69984 24.0004C7.29984 24.0004 6.99984 24.0004 6.69984 24.0004ZM13.2998 19.0004C13.3998 19.0004 13.4998 19.0004 13.4998 19.0004C15.8998 19.0004 18.3998 19.0004 20.7998 19.0004C21.4998 19.0004 21.7998 18.6004 21.7998 18.0004C21.7998 12.7004 21.7998 7.50039 21.7998 2.20039C21.7998 1.50039 21.3998 1.20039 20.7998 1.20039C16.8998 1.20039 12.8998 1.20039 8.99984 1.20039C8.39984 1.20039 7.99984 1.60039 7.99984 2.20039C7.99984 2.70039 7.99984 3.30039 7.99984 3.80039C7.99984 6.30039 7.99984 8.90039 7.99984 11.4004C7.99984 11.5004 7.99984 11.6004 8.19984 11.7004C10.3998 12.1004 11.9998 13.4004 12.8998 15.5004C13.3998 16.6004 13.4998 17.8004 13.2998 19.0004ZM12.1998 17.8004C12.1998 15.0004 9.89984 12.8004 7.19984 12.8004C4.39984 12.8004 2.19984 15.0004 2.19984 17.8004C2.19984 20.6004 4.39984 22.8004 7.19984 22.8004C9.89984 22.8004 12.1998 20.6004 12.1998 17.8004Z" fill="white"/>
<path d="M14.9002 7.99922C13.6002 7.99922 12.3002 7.99922 10.9002 7.99922C10.1002 7.99922 9.7002 7.59922 9.7002 6.79922C9.7002 5.79922 9.7002 4.79922 9.7002 3.79922C9.7002 3.09922 10.1002 2.69922 10.8002 2.69922C13.5002 2.69922 16.1002 2.69922 18.8002 2.69922C19.5002 2.69922 19.9002 3.09922 19.9002 3.79922C19.9002 4.79922 19.9002 5.89922 19.9002 6.89922C20.1002 7.59922 19.7002 7.99922 19.0002 7.99922C17.6002 7.99922 16.3002 7.99922 14.9002 7.99922ZM18.9002 3.89922C16.3002 3.89922 13.7002 3.89922 11.0002 3.89922C11.0002 4.89922 11.0002 5.89922 11.0002 6.89922C13.6002 6.89922 16.2002 6.89922 18.9002 6.89922C18.9002 5.89922 18.9002 4.89922 18.9002 3.89922Z" fill="white"/>
<path d="M15.0001 9.29922C16.3001 9.29922 17.7001 9.29922 19.0001 9.29922C19.4001 9.29922 19.6001 9.49922 19.6001 9.79922C19.6001 10.1992 19.4001 10.3992 19.0001 10.3992C18.7001 10.3992 18.4001 10.3992 18.0001 10.3992C15.6001 10.3992 13.3001 10.3992 10.9001 10.3992C10.8001 10.3992 10.8001 10.3992 10.7001 10.3992C10.4001 10.3992 10.1001 10.0992 10.1001 9.79922C10.1001 9.49922 10.3001 9.19922 10.7001 9.19922C11.3001 9.19922 11.9001 9.19922 12.4001 9.19922C13.4001 9.29922 14.2001 9.29922 15.0001 9.29922Z" fill="white"/>
<path d="M16.4998 11.6996C17.2998 11.6996 18.0998 11.6996 18.8998 11.6996C18.9998 11.6996 19.0998 11.6996 19.1998 11.6996C19.4998 11.6996 19.6998 11.9996 19.6998 12.1996C19.6998 12.4996 19.5998 12.6996 19.2998 12.7996C19.1998 12.7996 19.0998 12.7996 18.9998 12.7996C17.3998 12.7996 15.7998 12.7996 14.0998 12.7996C13.9998 12.7996 13.9998 12.7996 13.8998 12.7996C13.5998 12.7996 13.2998 12.4996 13.2998 12.1996C13.2998 11.8996 13.4998 11.6996 13.8998 11.5996C14.6998 11.5996 15.4998 11.5996 16.2998 11.5996C16.3998 11.6996 16.3998 11.6996 16.4998 11.6996Z" fill="white"/>
<path d="M16.9998 14.3008C17.6998 14.3008 18.3998 14.3008 18.9998 14.3008C19.3998 14.3008 19.5998 14.5008 19.6998 14.9008C19.6998 15.2008 19.3998 15.5008 19.0998 15.5008C17.6998 15.5008 16.3998 15.5008 14.9998 15.5008C14.5998 15.5008 14.3998 15.3008 14.2998 14.9008C14.2998 14.5008 14.5998 14.3008 14.9998 14.3008C15.5998 14.3008 16.2998 14.3008 16.9998 14.3008Z" fill="white"/>
<path d="M7.79984 18.9992C7.79984 18.5992 7.59984 18.3992 7.19984 18.2992C6.49984 18.1992 5.99984 17.8992 5.59984 17.2992C5.09984 16.3992 5.49984 15.2992 6.39984 14.8992C6.59984 14.7992 6.59984 14.6992 6.59984 14.4992C6.59984 14.3992 6.59984 14.2992 6.59984 14.1992C6.59984 13.8992 6.79984 13.6992 7.09984 13.6992C7.39984 13.6992 7.59984 13.8992 7.69984 14.1992C7.59984 14.5992 7.79984 14.7992 8.19984 14.9992C8.49984 15.1992 8.69984 15.4992 8.79984 15.7992C8.89984 16.1992 8.79984 16.4992 8.49984 16.5992C8.19984 16.6992 7.89984 16.5992 7.69984 16.1992C7.59984 15.9992 7.29984 15.8992 6.89984 15.9992C6.59984 16.0992 6.49984 16.3992 6.49984 16.5992C6.49984 16.8992 6.79984 17.0992 7.09984 17.0992C7.29984 17.0992 7.39984 17.0992 7.59984 17.1992C8.29984 17.3992 8.79984 17.9992 8.89984 18.6992C8.99984 19.4992 8.59984 20.1992 7.89984 20.4992C7.69984 20.5992 7.69984 20.6992 7.69984 20.8992C7.69984 20.9992 7.69984 21.1992 7.69984 21.2992C7.59984 21.5992 7.39984 21.7992 7.09984 21.6992C6.79984 21.6992 6.49984 21.4992 6.59984 21.1992C6.59984 20.7992 6.49984 20.5992 6.09984 20.3992C5.79984 20.1992 5.49984 19.8992 5.39984 19.4992C5.29984 19.0992 5.39984 18.7992 5.79984 18.6992C6.09984 18.5992 6.39984 18.6992 6.49984 19.0992C6.59984 19.3992 6.79984 19.4992 7.09984 19.5992C7.39984 19.5992 7.59984 19.4992 7.69984 19.2992C7.79984 19.1992 7.79984 19.0992 7.79984 18.9992Z" fill="white"/>
</g>
<defs>
<clipPath id="clip0">
<rect width="23" height="24" fill="white"/>
</clipPath>
</defs>
</svg>
