<svg width="16" height="16" viewBox="0 0 16 16" fill="none" xmlns="http://www.w3.org/2000/svg">
<path d="M13.7 10.3C12.8 9.4 11.8 8.8 10.7 8.4C11.9 7.6 12.7 6.2 12.7 4.6C12.6 2.1 10.6 0 8 0C5.4 0 3.4 2.1 3.4 4.6C3.4 6.2 4.2 7.6 5.4 8.4C4.3 8.8 3.2 9.4 2.4 10.3C0.8 11.9 0 13.9 0 16H1.2C1.2 12.3 4.2 9.2 8 9.2C11.8 9.2 14.8 12.2 14.8 16H16C16 13.9 15.2 11.9 13.7 10.3ZM4.6 4.6C4.6 2.7 6.1 1.2 8 1.2C9.9 1.2 11.4 2.7 11.4 4.6C11.4 6.5 9.9 8 8 8C6.1 8 4.6 6.5 4.6 4.6Z" fill="black" fill-opacity="0.3"/>
</svg>
