<svg width="20" height="20" viewBox="0 0 20 20" fill="none" xmlns="http://www.w3.org/2000/svg">
<g clip-path="url(#clip0_9_167)">
<path d="M4.94473 20C3.87504 20 2.80539 19.5928 1.99105 18.7785C1.20207 17.9895 0.767578 16.9405 0.767578 15.8248C0.767578 14.7091 1.20207 13.6601 1.99105 12.8711L13.957 0.905156C14.5407 0.321445 15.3167 0 16.1422 0C16.9676 0 17.7437 0.321445 18.3273 0.905156C18.911 1.48883 19.2325 2.26484 19.2325 3.09031C19.2325 3.91574 18.911 4.6918 18.3273 5.27547L7.9859 15.6169C7.20477 16.398 5.93383 16.398 5.15266 15.6169C4.37152 14.8357 4.37152 13.5648 5.15266 12.7836L12.4277 5.50863C12.6416 5.29465 12.9886 5.29465 13.2027 5.50863C13.4167 5.72262 13.4167 6.06961 13.2027 6.28363L5.92762 13.5586C5.57383 13.9124 5.57383 14.488 5.92762 14.8419C6.28145 15.1957 6.85707 15.1957 7.2109 14.8419L17.5523 4.50047C17.929 4.12379 18.1364 3.62297 18.1364 3.09031C18.1364 2.55762 17.929 2.0568 17.5523 1.68016C16.7748 0.902578 15.5096 0.902578 14.732 1.68016L2.76602 13.6461C2.18406 14.228 1.86355 15.0018 1.86355 15.8248C1.86355 16.6479 2.18406 17.4216 2.76602 18.0035C3.96738 19.2048 5.92211 19.2048 7.1234 18.0036L16.0471 9.07984C16.2611 8.86586 16.608 8.86586 16.8221 9.07984C17.0361 9.29383 17.0361 9.64082 16.8221 9.85484L7.8984 18.7785C7.08406 19.5928 6.01437 20 4.94473 20Z" fill="#DA0202"/>
</g>
<defs>
<clipPath id="clip0_9_167">
<rect width="20" height="20" fill="white"/>
</clipPath>
</defs>
</svg>
