<svg xmlns="http://www.w3.org/2000/svg" style="border: 0 !important; clip: rect(0 0 0 0) !important; height: 1px !important; margin: -1px !important; overflow: hidden !important; padding: 0 !important; position: absolute !important; width: 1px !important;"
        class="root-svg-symbols-element">
    <symbol id="whatsapp" viewBox="0 0 100000 100000">
        <path d="M33403 30069c654-578 743-654 1820-1007 833-273 1416-233 2164-182 210 15 433 31 641 38 164 7 298 9 418 13 996 22 1382 32 2003 893 503 697 1605 3391 2498 5576 429 1049 809 1978 1048 2503 1160 2548 439 3425-886 5039-87 107-170 208-328 403h-1l-132 165 1 1c-161 201-228 286-543 615-728 758-1036 1238-913 1811 142 665 790 1563 1958 3106 867 1146 1700 2138 2589 3059 892 924 1843 1779 2943 2648 832 657 2378 1646 3920 2496 1278 704 2542 1304 3366 1522 441 117 732 91 956-20 240-118 449-353 682-618 222-255 595-720 1022-1254 1114-1390 2585-3228 3120-3386 567-168 1957 280 3562 957 2570 1083 5789 2757 6829 3326 490 268 765 520 921 911 142 356 152 776 128 1415-73 1828-437 3230-1159 4414-720 1182-1787 2130-3266 3052-4929 3073-9018 1644-13552 58l-170-60c-3326-1162-5897-2365-8151-3776-2256-1414-4181-3032-6216-5027-1808-1772-4021-4259-5966-6882-1595-2147-3012-4388-3892-6410-667-1534-1207-3275-1388-5101-151-1527-53-3112 429-4685 236-771 523-1482 860-2135 338-658 728-1260 1166-1809 207-259 502-614 778-924 220-247 436-474 598-615h-1l144-126zM51515 5660c5882 0 11493 1170 16614 3291 5319 2204 10103 5431 14107 9435s7231 8789 9435 14107c2120 5120 3291 10732 3291 16614s-1170 11493-3291 16612c-2204 5320-5431 10104-9435 14108-4003 4003-8789 7231-14107 9434-5120 2121-10732 3292-16614 3292-3840 0-7566-500-11117-1437-3604-951-7025-2355-10200-4146l-18216 5336-6172 1808-771 227 266-759 2124-6078 6069-17356c-1740-3137-3103-6515-4029-10071-912-3508-1398-7184-1398-10969 0-5882 1170-11493 3292-16614 2203-5319 5430-10103 9434-14107s8789-7231 14108-9435c5119-2120 10730-3291 16612-3291zM39977 83319c1831 618 3729 1093 5680 1410 1902 311 3859 472 5858 472 9967 0 18992-4041 25524-10572 6533-6533 10573-15556 10573-25524 0-9967-4041-18992-10573-25524-6532-6533-15556-10572-25524-10572-9967 0-18991 4039-25524 10572-6532 6532-10572 15556-10572 25524 0 2074 175 4106 510 6079 344 2024 856 3991 1521 5885 508 1447 1106 2851 1783 4204 684 1365 1455 2683 2303 3946l116 171-69 195-4730 13532 14126-4139 187-54 161 109c1336 902 2733 1717 4183 2435 1439 713 2930 1332 4466 1850z"
        fill="#4bcf4f" />
    </symbol>

	<symbol id="check" viewBox="0 0 24 24">
		<path d="M18.3 19.0504H2.25V3.15039H16.5L19.05 0.900391H0V21.4504H20.55V6.90039L18.3 9.00039V19.0504Z" fill="#828282"/>
		<path d="M24 1.65L10.05 14.4L4.5 8.85L6.15 7.35L9.9 11.25L22.35 0L24 1.65Z" fill="#828282"/>
	</symbol>

	<symbol id="check-square" viewBox="0 0 448 512"><!--!Font Awesome Free 6.6.0 by @fontawesome - https://fontawesome.com License - https://fontawesome.com/license/free Copyright 2024 Fonticons, Inc.--><path d="M64 80c-8.8 0-16 7.2-16 16l0 320c0 8.8 7.2 16 16 16l320 0c8.8 0 16-7.2 16-16l0-320c0-8.8-7.2-16-16-16L64 80zM0 96C0 60.7 28.7 32 64 32l320 0c35.3 0 64 28.7 64 64l0 320c0 35.3-28.7 64-64 64L64 480c-35.3 0-64-28.7-64-64L0 96zM337 209L209 337c-9.4 9.4-24.6 9.4-33.9 0l-64-64c-9.4-9.4-9.4-24.6 0-33.9s24.6-9.4 33.9 0l47 47L303 175c9.4-9.4 24.6-9.4 33.9 0s9.4 24.6 0 33.9z" fill="currentColor"/></symbol>

	<symbol id="user" viewBox="0 0 16 16">
		<path d="M13.7 10.3C12.8 9.4 11.8 8.8 10.7 8.4C11.9 7.6 12.7 6.2 12.7 4.6C12.6 2.1 10.6 0 8 0C5.4 0 3.4 2.1 3.4 4.6C3.4 6.2 4.2 7.6 5.4 8.4C4.3 8.8 3.2 9.4 2.4 10.3C0.8 11.9 0 13.9 0 16H1.2C1.2 12.3 4.2 9.2 8 9.2C11.8 9.2 14.8 12.2 14.8 16H16C16 13.9 15.2 11.9 13.7 10.3ZM4.6 4.6C4.6 2.7 6.1 1.2 8 1.2C9.9 1.2 11.4 2.7 11.4 4.6C11.4 6.5 9.9 8 8 8C6.1 8 4.6 6.5 4.6 4.6Z" fill="black" fill-opacity="0.3"/>
	</symbol>

	<symbol id="phone" viewBox="0 0 16 16">
		<g clip-path="url(#clip0)" fill="none">
			<path d="M12 15.9996C11.2 15.8996 10.6 15.7996 9.9 15.4996C8.4 14.8996 7 14.0996 5.7 12.9996C4 11.5996 2.6 9.99955 1.4 8.09955C0.8 6.99955 0.3 5.89955 0.1 4.69955C0.1 4.49955 0 4.29955 0 4.09955C0 3.89955 0 3.69955 0.1 3.59955C0.6 2.79955 1.1 2.09955 1.8 1.39955C2.2 0.999552 2.6 0.599552 3 0.299552C3.5 -0.100448 4.1 -0.00044772 4.5 0.499552C5.2 1.49955 5.9 2.49955 6.4 3.59955C6.5 3.79955 6.5 3.99955 6.6 4.19955C6.7 4.49955 6.6 4.79955 6.4 4.99955C6.2 5.29955 6 5.39955 5.8 5.59955C5.7 5.79955 5.5 5.89955 5.4 5.99955C5.3 6.09955 5.3 6.19955 5.3 6.29955C6.1 8.39955 7.6 9.89955 9.7 10.6996C9.8 10.7996 9.9 10.6996 10 10.5996C10.2 10.2996 10.5 9.99955 10.8 9.69955C11.1 9.29955 11.5 9.19955 12 9.39955C12.6 9.69955 13.2 9.99955 13.8 10.2996C14.4 10.5996 14.9 10.9996 15.5 11.3996C15.8 11.5996 15.9 11.7996 16 12.0996C16.1 12.2996 16.1 12.4996 15.9 12.6996C15.8 12.8996 15.7 12.9996 15.6 13.1996C14.7 14.1996 13.6 15.0996 12.4 15.7996C12.2 15.8996 12.1 15.9996 12 15.9996ZM3.6 1.09955C3.6 1.09955 3.5 1.09955 3.6 1.09955C2.6 1.99955 1.9 2.79955 1.2 3.79955C1.1 3.99955 1.1 4.19955 1.1 4.39955C1.3 5.39955 1.6 6.29955 2.1 7.09955C3.7 9.89955 5.9 12.0996 8.6 13.6996C9.6 14.2996 10.6 14.6996 11.7 14.7996C11.8 14.7996 11.9 14.7996 11.9 14.6996C12.5 14.2996 13.1 13.7996 13.7 13.3996C14.1 13.0996 14.4 12.6996 14.8 12.2996C14.7 12.2996 14.7 12.1996 14.7 12.1996C13.8 11.4996 12.8 10.8996 11.7 10.3996C11.4 10.2996 11.5 10.2996 11.3 10.4996C11 10.8996 10.7 11.1996 10.3 11.5996C10.2 11.7996 10 11.7996 9.8 11.6996C9.7 11.6996 9.6 11.6996 9.5 11.5996C8 11.0996 6.7 10.1996 5.6 8.99955C5 8.29955 4.4 7.29955 4.2 6.09955C4.1 5.89955 4.2 5.69955 4.3 5.49955C4.4 5.39955 4.4 5.29955 4.5 5.29955C4.8 4.99955 5.1 4.69955 5.5 4.49955C5.6 4.39955 5.6 4.39955 5.5 4.29955C5 3.29955 4.5 2.39955 3.9 1.49955C3.8 1.39955 3.7 1.19955 3.6 1.09955Z" fill="black" fill-opacity="0.3"/>
			<path d="M15.5001 7.50035C15.1001 7.50035 14.8001 7.50035 14.4001 7.50035C14.4001 5.90035 13.8001 4.50035 12.7001 3.40035C11.6001 2.30035 10.2001 1.70035 8.6001 1.70035C8.6001 1.30035 8.6001 1.00035 8.6001 0.700354C12.0001 0.400353 15.5001 3.40035 15.5001 7.50035Z" fill="black" fill-opacity="0.3"/>
			<path d="M8.5 4.29911C8.5 3.89911 8.5 3.59911 8.5 3.29911C10.5 3.19911 12.8 4.89911 12.8 7.49911C12.6 7.49911 12.5 7.49911 12.3 7.49911C12.1 7.49911 12 7.49911 11.8 7.49911C11.8 6.59911 11.5 5.89911 10.9 5.19911C10.2 4.59911 9.4 4.29911 8.5 4.29911Z" fill="black" fill-opacity="0.3"/>
		</g>
		<defs>
			<clipPath id="clip0">
				<rect width="16" height="16" fill="white"/>
			</clipPath>
		</defs>
	</symbol>

	<symbol id="email" viewBox="0 0 24 24">
		<path d="M24 5.1C24 4 23.1 3 21.9 3H2.1C0.9 3 0 3.9 0 5.1V19.2C0 20.4 0.9 21.3 2.1 21.3H21.9C23.1 21.3 24 20.4 24 19.2V5.1ZM1.4 5.4L8.2 12.1L1.4 18.9V5.4ZM12 14L2.4 4.4H21.6L12 14ZM9.2 13.1L11.6 15.5C11.9 15.8 12.3 15.8 12.6 15.5L14.9 13.2L21.6 19.9H2.4L9.2 13.1ZM15.9 12.1L22.6 5.4V18.9L15.9 12.1Z" fill="#999999"/>
	</symbol>

</svg>